<svg width="1600" height="900" viewBox="0 0 1600 900" fill="none" xmlns="http://www.w3.org/2000/svg">
  <rect width="1600" height="900" rx="36" fill="#0A0F19"/>
  <rect x="40" y="40" width="1520" height="820" rx="32" fill="url(#bg)"/>
  <rect x="110" y="120" width="610" height="660" rx="34" fill="#06101E" stroke="#D4A843" stroke-opacity="0.42"/>
  <rect x="880" y="120" width="610" height="660" rx="34" fill="#191510" stroke="#D6A160" stroke-opacity="0.5"/>
  <rect x="166" y="176" width="206" height="40" rx="20" fill="#D4A843" fill-opacity="0.22"/>
  <rect x="166" y="246" width="438" height="158" rx="30" fill="#101828"/>
  <rect x="166" y="432" width="484" height="22" rx="11" fill="#DDE1F0" fill-opacity="0.18"/>
  <rect x="166" y="474" width="410" height="22" rx="11" fill="#DDE1F0" fill-opacity="0.14"/>
  <rect x="166" y="516" width="336" height="22" rx="11" fill="#DDE1F0" fill-opacity="0.12"/>
  <rect x="166" y="606" width="224" height="62" rx="31" fill="#D4A843"/>
  <circle cx="604" cy="266" r="108" fill="#D4A843" fill-opacity="0.22"/>
  <rect x="936" y="176" width="228" height="40" rx="20" fill="#D6A160" fill-opacity="0.26"/>
  <rect x="936" y="246" width="492" height="292" rx="34" fill="#302418"/>
  <rect x="936" y="580" width="416" height="22" rx="11" fill="#F5ECDF" fill-opacity="0.2"/>
  <rect x="936" y="622" width="454" height="22" rx="11" fill="#F5ECDF" fill-opacity="0.16"/>
  <rect x="936" y="664" width="360" height="22" rx="11" fill="#F5ECDF" fill-opacity="0.12"/>
  <rect x="936" y="738" width="294" height="56" rx="28" fill="#D6A160"/>
  <circle cx="1338" cy="316" r="134" fill="#D6A160" fill-opacity="0.18"/>
  <path d="M772 186C824 240 856 316 856 398C856 480 824 556 772 610" stroke="#F8F2E8" stroke-opacity="0.28" stroke-width="6" stroke-linecap="round"/>
  <path d="M804 154C878 224 922 318 922 424C922 530 878 624 804 694" stroke="#F8F2E8" stroke-opacity="0.12" stroke-width="6" stroke-linecap="round"/>
  <defs>
    <linearGradient id="bg" x1="178" y1="94" x2="1410" y2="808" gradientUnits="userSpaceOnUse">
      <stop stop-color="#0D1424"/>
      <stop offset="0.5" stop-color="#141318"/>
      <stop offset="1" stop-color="#1F1712"/>
    </linearGradient>
  </defs>
</svg>
