<svg width="960" height="640" viewBox="0 0 960 640" fill="none" xmlns="http://www.w3.org/2000/svg">
  <rect width="960" height="640" rx="28" fill="#0B101A"/>
  <rect x="24" y="24" width="912" height="592" rx="24" fill="url(#bg)"/>
  <rect x="72" y="80" width="366" height="480" rx="28" fill="#07101F" stroke="#D4A843" stroke-opacity="0.4"/>
  <rect x="522" y="80" width="366" height="480" rx="28" fill="#1A1612" stroke="#D6A160" stroke-opacity="0.45"/>
  <rect x="108" y="116" width="124" height="28" rx="14" fill="#D4A843" fill-opacity="0.2"/>
  <rect x="108" y="166" width="264" height="108" rx="24" fill="#101828"/>
  <rect x="108" y="292" width="292" height="18" rx="9" fill="#DDE1F0" fill-opacity="0.18"/>
  <rect x="108" y="326" width="250" height="18" rx="9" fill="#DDE1F0" fill-opacity="0.14"/>
  <rect x="108" y="360" width="206" height="18" rx="9" fill="#DDE1F0" fill-opacity="0.12"/>
  <rect x="108" y="420" width="144" height="42" rx="21" fill="#D4A843"/>
  <circle cx="365" cy="173" r="58" fill="#D4A843" fill-opacity="0.22"/>
  <rect x="558" y="116" width="138" height="28" rx="14" fill="#D6A160" fill-opacity="0.24"/>
  <rect x="558" y="166" width="294" height="198" rx="28" fill="#302418"/>
  <rect x="558" y="392" width="248" height="18" rx="9" fill="#F5ECDF" fill-opacity="0.2"/>
  <rect x="558" y="426" width="270" height="18" rx="9" fill="#F5ECDF" fill-opacity="0.16"/>
  <rect x="558" y="460" width="214" height="18" rx="9" fill="#F5ECDF" fill-opacity="0.12"/>
  <rect x="558" y="508" width="182" height="40" rx="20" fill="#D6A160"/>
  <circle cx="810" cy="214" r="78" fill="#D6A160" fill-opacity="0.18"/>
  <path d="M462 122C494 158 514 208 514 262C514 316 494 366 462 402" stroke="#F8F2E8" stroke-opacity="0.28" stroke-width="4" stroke-linecap="round"/>
  <path d="M480 102C528 150 556 213 556 284C556 355 528 418 480 466" stroke="#F8F2E8" stroke-opacity="0.12" stroke-width="4" stroke-linecap="round"/>
  <defs>
    <linearGradient id="bg" x1="95" y1="54" x2="844" y2="593" gradientUnits="userSpaceOnUse">
      <stop stop-color="#0D1424"/>
      <stop offset="0.52" stop-color="#141318"/>
      <stop offset="1" stop-color="#1E1712"/>
    </linearGradient>
  </defs>
</svg>
